<?xml version="1.0" encoding="UTF-8" standalone="no"?>
<!-- Generator: Adobe Illustrator 28.3.0, SVG Export Plug-In . SVG Version: 6.00 Build 0)  -->

<svg
   version="1.1"
   id="Layer_1"
   x="0px"
   y="0px"
   viewBox="0 595 1135.587 333.04401"
   xml:space="preserve"
   width="1135.587"
   height="333.04401"
   sodipodi:docname="Lampata.svg"
   inkscape:version="1.4.3 (0d15f75, 2025-12-25)"
   xmlns:inkscape="http://www.inkscape.org/namespaces/inkscape"
   xmlns:sodipodi="http://sodipodi.sourceforge.net/DTD/sodipodi-0.dtd"
   xmlns="http://www.w3.org/2000/svg"
   xmlns:svg="http://www.w3.org/2000/svg"><sodipodi:namedview
   id="namedview1"
   pagecolor="#ffffff"
   bordercolor="#000000"
   borderopacity="0.25"
   inkscape:showpageshadow="2"
   inkscape:pageopacity="0.0"
   inkscape:pagecheckerboard="0"
   inkscape:deskcolor="#d1d1d1"
   inkscape:zoom="1.2490842"
   inkscape:cx="568.01616"
   inkscape:cy="244.57919"
   inkscape:window-width="2304"
   inkscape:window-height="1238"
   inkscape:window-x="1470"
   inkscape:window-y="30"
   inkscape:window-maximized="1"
   inkscape:current-layer="Layer_1" /><defs
   id="defs320" />









<g
   id="g267"
   transform="translate(-712.20697,-13.526)">
	<g
   id="g266">
		<path
   style="fill:#00458b"
   d="m 1702.58,741.709 h -52.876 V 888.701 H 1617.32 V 741.709 h -53.13 v -28.842 h 138.39 z"
   id="path215" />
		<path
   style="fill:none"
   d="m 1205.088,821.987 c 8.591,-3.842 17.015,-7.732 25.245,-11.662 l -3.618,-51.664 z"
   id="path248" />
		<path
   style="fill:none"
   d="m 1364.082,792.561 c 18.975,0 28.842,-10.625 28.842,-25.806 0,-9.678 -4.174,-17.525 -12.263,-21.863 -14.977,11.89 -32.534,24.03 -52.252,36.164 v 11.505 z"
   id="path249" />
		<path
   style="fill:none"
   d="m 1108.072,860.453 c 10.254,-3.59 20.525,-7.313 30.788,-11.194 2.205,-0.834 4.402,-1.672 6.593,-2.514 l -30.057,-87.831 z"
   id="path250" />
		<path
   style="fill:#00458b"
   d="m 814.347,712.867 h -32.384 v 99.898 c 9.572,-8.131 20.407,-16.407 32.384,-24.746 z"
   id="path251" />
		<path
   style="fill:#00458b"
   d="m 1106.035,888.701 0.484,-6.716 c -6.79,2.3 -13.571,4.546 -20.334,6.716 z"
   id="path252" />
		<path
   style="fill:#00458b"
   d="m 1157.647,882.376 h 26.817 l 11.746,-34.395 c -14.363,6.069 -29.139,11.992 -44.267,17.729 z"
   id="path253" />
		<path
   style="fill:#00458b"
   d="m 1235.822,888.701 h 30.107 l -5.063,-70.381 c -9.4,4.685 -19.075,9.326 -28.999,13.908 z"
   id="path254" />
		<path
   style="fill:#00458b"
   d="m 1392.923,766.756 c 0,15.18 -9.867,25.806 -28.842,25.806 h -35.673 v -11.505 c -10.229,6.294 -21.044,12.586 -32.384,18.84 v 88.804 h 32.384 v -67.804 h 37.191 c 36.685,0 60.214,-21.251 60.214,-54.141 0,-18.661 -7.621,-33.59 -21.043,-42.962 -7.055,6.906 -15.112,13.956 -24.11,21.099 8.09,4.338 12.263,12.185 12.263,21.863 z"
   id="path255" />
		<polygon
   style="fill:#00458b"
   points="1499.429,746.77 1548.005,888.701 1579.882,888.701 1518.91,712.867 1479.695,712.867 1418.975,888.701 1451.106,888.701 "
   id="polygon255" />
		<polygon
   style="fill:#00458b"
   points="1767.341,746.77 1815.917,888.701 1847.794,888.701 1786.822,712.867 1747.607,712.867 1686.887,888.701 1719.019,888.701 "
   id="polygon256" />
		<g
   id="g260">
			<path
   style="fill:#f5d704"
   d="m 955.29,733.285 -53.668,155.416 h 32.13 l 9.448,-27.752 v 2.629 h 66.653 l -7,-23.864 H 950.43 l 31.645,-92.945 47.362,138.387 c 9.58,-2.663 19.228,-5.46 28.941,-8.422 l -56.727,-163.593 c -15.946,6.53 -31.431,13.267 -46.361,20.144 z"
   id="path256" />
			<path
   style="fill:#f5d704"
   d="m 814.347,814.776 c -12.846,9.878 -23.739,19.521 -32.384,28.738 v 45.187 H 897.33 v -28.842 h -82.983 z"
   id="path257" />
			<path
   style="fill:#f5d704"
   d="m 1223.426,712.867 v 0.253 l -7.337,-0.253 -42.091,122.489 c 10.58,-4.374 20.953,-8.836 31.09,-13.369 l 21.627,-63.327 3.618,51.664 c 9.928,-4.741 19.581,-9.537 28.924,-14.367 l -5.978,-83.09 z"
   id="path258" />
			<path
   style="fill:#f5d704"
   d="m 1118.685,713.121 v -0.253 h -30.107 l -11.364,157.949 c 10.252,-3.303 20.543,-6.752 30.858,-10.363 l 7.324,-101.54 30.057,87.831 c 7.894,-3.035 15.691,-6.13 23.387,-9.27 l -42.818,-124.608 z"
   id="path259" />
			<path
   style="fill:#f5d704"
   d="m 1365.599,712.867 h -69.574 v 62.98 c 11.486,-6.659 22.307,-13.326 32.384,-19.95 v -14.694 h 21.221 c 12.484,-9.139 23.377,-18.112 32.449,-26.772 -5.126,-1.027 -10.63,-1.564 -16.48,-1.564 z"
   id="path260" />
		</g>
		<g
   id="g265">
			<path
   style="fill:#f5d704"
   d="m 955.29,733.285 -53.668,155.416 h 32.13 l 9.448,-27.752 v 2.629 h 66.653 l -7,-23.864 H 950.43 l 31.645,-92.945 47.362,138.387 c 9.58,-2.663 19.228,-5.46 28.941,-8.422 l -56.727,-163.593 c -15.946,6.53 -31.431,13.267 -46.361,20.144 z"
   id="path261" />
			<path
   style="fill:#f5d704"
   d="m 814.347,814.776 c -12.846,9.878 -23.739,19.521 -32.384,28.738 v 45.187 H 897.33 v -28.842 h -82.983 z"
   id="path262" />
			<path
   style="fill:#f5d704"
   d="m 1216.089,712.867 -42.091,122.489 c 10.58,-4.374 20.953,-8.836 31.09,-13.369 l 21.627,-63.327 3.618,51.664 c 9.928,-4.741 19.581,-9.537 28.924,-14.367 l -5.978,-83.09 z"
   id="path263" />
			<path
   style="fill:#f5d704"
   d="m 1088.578,712.867 -11.364,157.949 c 10.252,-3.303 20.543,-6.752 30.858,-10.363 l 7.324,-101.54 30.057,87.831 c 7.894,-3.035 15.691,-6.13 23.387,-9.27 l -42.818,-124.608 h -37.444 z"
   id="path264" />
			<path
   style="fill:#f5d704"
   d="m 1365.599,712.867 h -69.574 v 62.98 c 11.486,-6.659 22.307,-13.326 32.384,-19.95 v -14.694 h 21.221 c 12.484,-9.139 23.377,-18.112 32.449,-26.772 -5.126,-1.027 -10.63,-1.564 -16.48,-1.564 z"
   id="path265" />
		</g>
		<polygon
   style="fill:#00458b"
   points="1523.71,863.578 1457.057,863.578 1457.057,839.714 1516.71,839.714 "
   id="polygon265" />
		<polygon
   style="fill:#00458b"
   points="1789.25,863.578 1722.598,863.578 1722.598,839.714 1782.25,839.714 "
   id="polygon266" />
	</g>
	<path
   style="fill:#00458b"
   d="m 1453.269,637.705 c -13.706,-19.256 -49.604,-29.179 -101.329,-29.179 -19.528,0 -64.949,4.96841 -106.7903,11.83061 0.162,1.063 -36.4435,11.19794 1.2896,3.25 1.5637,-0.32937 -36.4118,7.67797 -36.7428,9.17597 24.324,-3.088 123.5985,-16.72258 143.5615,-16.72258 31.375,0 71.706,4.114 85.66,23.717 4.502,6.325 8.357,17.368 1.152,34.051 -5.325,12.326 -15.763,25.961 -31.021,40.528 -9.887,9.438 -21.857,19.317 -35.579,29.362 -7.192,5.266 -14.969,10.652 -23.116,16.006 -10.916,7.176 -22.75,14.467 -35.175,21.671 -12.62,7.318 -26.032,14.653 -39.862,21.802 -10.094,5.22 -20.635,10.456 -31.326,15.561 -8.846,4.224 -18.041,8.471 -27.33,12.625 -10.994,4.916 -22.314,9.784 -33.645,14.467 -1.855,0.767 -3.714,1.532 -5.58,2.293 -8.441,3.444 -16.954,6.818 -25.304,10.029 -2.37,0.911 -4.747,1.818 -7.132,2.72 -10.636,4.021 -21.841,8.095 -33.302,12.108 -10.836,3.794 -22.066,7.565 -33.38,11.21 -7.424,2.392 -14.089,4.485 -20.377,6.403 -10.073,3.072 -20.611,6.139 -31.317,9.113 -55.065,15.303 -106.284,25.659 -152.234,30.779 -20.198,2.251 -38.714,3.358 -55.272,3.358 -44.902,0 -75.458,-8.135 -86.518,-23.671 -4.503,-6.326 -8.357,-17.37 -1.149,-34.052 4.236,-9.805 11.748,-20.497 22.327,-31.777 9.453,-10.08 21.443,-20.725 35.636,-31.637 38.228,-29.396 91.13,-59.994 152.988,-88.489 16.3,-7.507 33.181,-14.841 50.174,-21.799 11.197,-4.586 24.0865,-8.28056 35.4115,-12.56356 75.747,-28.641 151.915,-50.128 220.666,-62.304 -1.335,-2.309 -2.9111,-4.44493 -3.3071,-7.19393 -70.551,12.364 -149.5144,33.10049 -227.1074,62.43749 -86.474,32.696 -165.062,72.259 -221.283,111.403 -12.719,8.855 -24.289,17.694 -34.385,26.272 -23.547,20.001 -39.03,38.347 -46.02,54.529 -6.307,14.598 -5.751,26.781 1.699,37.245 13.647,19.173 48.542,29.307 100.91,29.307 17.584,0 37.102,-1.182 58.011,-3.51 61.275,-6.826 132.819,-22.992 206.899,-46.752 6.937,-2.226 14.067,-4.58 21.797,-7.199 16.333,-5.532 32.285,-11.237 47.414,-16.958 l 1.279,-0.487 c 16.027,-6.078 31.989,-12.471 47.45,-19.004 12.938,-5.467 25.792,-11.146 38.203,-16.878 10.559,-4.876 21.008,-9.887 31.056,-14.895 12.941,-6.45 25.6,-13.082 37.623,-19.714 12.085,-6.665 23.728,-13.44 34.608,-20.134 21.063,-12.961 39.783,-25.916 55.641,-38.504 9.493,-7.536 18.06,-15.033 25.465,-22.281 14.891,-14.578 25.106,-28.138 30.363,-40.306 6.306,-14.596 5.75,-26.778 -1.7,-37.243 z"
   id="path266" />
	
</g>

<ellipse
   style="fill:#000000;fill-opacity:0;stroke-width:0.892815"
   id="path1"
   transform="matrix(0.93953711,-0.3424471,0.48578993,0.87407559,0,0)"
   ry="105.34608"
   rx="382.99197"
   cy="851.34271"
   cx="-46.089043" /></svg>
