<?xml version="1.0"?>
<svg xmlns="http://www.w3.org/2000/svg" id="Layer_1" viewBox="0 0 143 50">  <defs>    <style>      .cls-1 {        fill: #fff;      }    </style>  </defs>  <g>    <path class="cls-1" d="M36.67,10.06l-.05-.03-3.81-2.22-.04-.02-3.82-2.23h-.03s-3.84-2.25-3.84-2.25h-.01s-1.68-.99-1.68-.99c-1.34-.78-2.99-.78-4.33,0l-1.69.98h-.01s-3.84,2.25-3.84,2.25h-.03s-3.82,2.25-3.82,2.25l-.04.02-3.81,2.23-.05.03-2.1,1.23c-.76.44-.76,1.54,0,1.98l2.1,1.23.05.03,3.81,2.23.04.02,3.82,2.23h.03s3.84,2.25,3.84,2.25h.01s1.69.99,1.69.99c1.34.78,2.99.78,4.33,0l1.68-.98h.01s3.84-2.25,3.84-2.25h.03s3.82-2.25,3.82-2.25l.04-.02,3.81-2.22.05-.03,2.1-1.23c.76-.44.76-1.54,0-1.98l-2.1-1.23ZM28.95,14.51h-.03s-3.84,2.25-3.84,2.25h-.01s-2.77,1.62-2.77,1.62c-.67.39-1.5.39-2.16,0l-2.77-1.62h-.01s-3.84-2.25-3.84-2.25h-.03s-2.98-1.75-2.98-1.75c-.38-.22-.38-.77,0-.99l2.98-1.74h.03s3.84-2.25,3.84-2.25h.01s2.77-1.62,2.77-1.62c.67-.39,1.5-.39,2.16,0l2.77,1.61h.01s3.84,2.25,3.84,2.25h.03s2.98,1.75,2.98,1.75c.38.22.38.77,0,.99l-2.98,1.74Z"/>    <path class="cls-1" d="M39.9,16.89c1.14-.67,2.58.16,2.58,1.48v5.34c0,.41-.22.78-.57.99l-2.43,1.42c-.38.22-.86-.05-.86-.49v-3c0-.22-.24-.36-.43-.25l-3.43,2-.05.03-3.81,2.22-.04.02-3.26,1.9c-.35.21-.57.58-.57.99v12.33c0,.22.24.36.43.25l3.39-1.98.04.02v-.05l3.81-2.22.05.03v-.06l3.58-2.09c.18-.1.28-.29.28-.49v-3.51c0-.41.22-.78.57-.99l2.43-1.42c.38-.22.86.05.86.49v3.5l-.08.04.08.04v3.42c0,.61-.32,1.18-.85,1.48l-3.01,1.76-.06.04-3.8,2.22-.05.03-3.81,2.22-.04.02-3.82,2.23h-.03s-2.11,1.25-2.11,1.25c-.76.45-1.72-.1-1.72-.99v-19.82c0-.41.22-.78.57-.99l3.27-1.91h.03s3.82-2.25,3.82-2.25l.04-.02,3.81-2.22.05-.03,3.8-2.22.06-.04,1.28-.75Z"/>    <path class="cls-1" d="M15.45,33.39h.03s3.27,1.92,3.27,1.92c.35.21.57.58.57.99v10.83c0,.88-.96,1.43-1.72.99C13.4,45.68.85,38.35.85,38.35.32,38.04,0,37.48,0,36.87v-18.49c0-1.33,1.44-2.15,2.58-1.48l1.28.75.06.04,3.8,2.22.05.03,3.81,2.22.04.02,3.82,2.23h.03s3.27,1.92,3.27,1.92c.35.21.57.58.57.99v2.84c0,.44-.48.72-.86.49l-2.98-1.74h-.03s-3.82-2.25-3.82-2.25l-.04-.02-3.81-2.23-.05-.03-3.43-2c-.19-.11-.43.03-.43.25v12.49c0,.31.16.59.43.74l3.44,2.01.05.03,3.81,2.23.04.02,3.39,1.98c.19.11.43-.03.43-.25v-3.67c0-.2-.11-.39-.28-.49l-3.01-1.76c-.35-.21-.57-.58-.57-.99v-2.84c0-.44.48-.72.86-.49l3,1.75Z"/>  </g>  <path class="cls-1" d="M63.98,16.38c-3.11,0-5.39-2.27-5.39-5.32s2.28-5.32,5.39-5.32,5.38,2.27,5.38,5.32-2.27,5.32-5.38,5.32ZM67.67,11.06c0-2.11-1.56-3.7-3.68-3.7s-3.68,1.61-3.68,3.7,1.58,3.7,3.68,3.7c2.12-.01,3.68-1.58,3.68-3.7Z"/>  <path class="cls-1" d="M75.35,8.09c2.36,0,4.08,1.77,4.08,4.14s-1.72,4.14-4.08,4.14c-1.02,0-1.92-.35-2.62-.96v3.6h-1.62v-10.74h1.11l.29.97c.71-.72,1.71-1.15,2.84-1.15ZM77.78,12.24c0-1.49-1.08-2.59-2.56-2.59s-2.59,1.12-2.59,2.59,1.09,2.59,2.59,2.59,2.56-1.11,2.56-2.59Z"/>  <path class="cls-1" d="M88.64,12.25c0,.19-.01.35-.04.55h-6.4c.21,1.28,1.12,2.06,2.42,2.06.94,0,1.71-.43,2.12-1.15h1.71c-.63,1.67-2.06,2.68-3.83,2.68-2.31,0-4.05-1.8-4.05-4.14s1.75-4.14,4.05-4.14c2.33-.01,4.02,1.84,4.02,4.14ZM82.26,11.47h4.76c-.29-1.19-1.19-1.9-2.4-1.9s-2.08.72-2.36,1.9Z"/>  <path class="cls-1" d="M94.54,8.11c1.84,0,2.99,1.39,2.99,3.32v4.76h-1.62v-4.42c0-1.43-.62-2.2-1.81-2.2s-2.12.99-2.12,2.39v4.23h-1.62v-7.91h1.13l.32,1.11c.6-.78,1.58-1.27,2.73-1.27Z"/>  <path class="cls-1" d="M68.99,25.1c-.03,3.14-2.15,5.39-5.16,5.39s-5.23-2.24-5.23-5.32,2.2-5.29,5.19-5.29c2.49,0,4.58,1.56,5.04,3.8h-1.74c-.44-1.33-1.72-2.18-3.27-2.18-2.06,0-3.52,1.52-3.52,3.67s1.41,3.67,3.52,3.67c1.64,0,2.96-.93,3.33-2.31h-3.66v-1.43h5.5Z"/>  <path class="cls-1" d="M78.25,26.37c0,.19-.01.35-.03.55h-6.41c.21,1.28,1.12,2.06,2.42,2.06.94,0,1.71-.43,2.12-1.15h1.71c-.63,1.67-2.06,2.68-3.83,2.68-2.31,0-4.05-1.8-4.05-4.14s1.75-4.14,4.05-4.14c2.31-.01,4.02,1.83,4.02,4.14ZM71.87,25.59h4.76c-.29-1.19-1.19-1.9-2.4-1.9-1.19-.03-2.11.72-2.36,1.9Z"/>  <path class="cls-1" d="M83.62,30.48c-2.4,0-4.2-1.77-4.2-4.14s1.8-4.14,4.2-4.14,4.22,1.77,4.22,4.14-1.81,4.14-4.22,4.14ZM86.18,26.36c0-1.52-1.08-2.59-2.56-2.59s-2.56,1.08-2.56,2.59,1.08,2.59,2.56,2.59c1.49-.01,2.56-1.09,2.56-2.59Z"/>  <path class="cls-1" d="M88.95,27.79h1.58c.03.84.74,1.27,1.7,1.27.87,0,1.55-.37,1.55-1.03,0-.75-.84-.91-1.81-1.08-1.33-.22-2.87-.52-2.87-2.34,0-1.41,1.22-2.39,3.05-2.39s3.02,1,3.05,2.54h-1.55c-.04-.75-.59-1.15-1.55-1.15-.9,0-1.46.37-1.46.96,0,.69.8.84,1.75.99,1.34.22,2.95.49,2.95,2.42,0,1.53-1.28,2.54-3.2,2.54-1.87-.01-3.14-1.08-3.18-2.71Z"/>  <path class="cls-1" d="M101.36,22.21c2.37,0,4.08,1.77,4.08,4.14s-1.74,4.14-4.08,4.14c-1.02,0-1.92-.35-2.62-.96v3.58h-1.62v-10.73h1.11l.29.97c.72-.72,1.71-1.15,2.84-1.15ZM103.79,26.36c0-1.49-1.08-2.59-2.56-2.59s-2.59,1.12-2.59,2.59,1.11,2.59,2.59,2.59,2.56-1.11,2.56-2.59Z"/>  <path class="cls-1" d="M115.02,22.39v7.89h-1.3l-.16-.97c-.71.72-1.71,1.15-2.86,1.15-2.34,0-4.1-1.77-4.1-4.14s1.75-4.14,4.1-4.14c1.15,0,2.15.44,2.89,1.18l.19-.99,1.24.03ZM113.4,26.36c0-1.49-1.08-2.59-2.56-2.59s-2.59,1.12-2.59,2.59,1.11,2.59,2.59,2.59c1.47-.03,2.56-1.12,2.56-2.59Z"/>  <path class="cls-1" d="M121.75,28.82v1.47h-1.21c-1.72,0-2.8-1.06-2.8-2.82v-3.7h-1.41v-.32l2.74-2.93h.28v1.84h2.34v1.4h-2.33v3.57c0,.96.52,1.47,1.47,1.47h.91Z"/>  <path class="cls-1" d="M123.29,19.5h1.68v1.68h-1.68v-1.68ZM123.34,22.39h1.62v7.89h-1.62v-7.89Z"/>  <path class="cls-1" d="M135.1,22.39v7.89h-1.3l-.16-.97c-.71.72-1.71,1.15-2.87,1.15-2.34,0-4.1-1.77-4.1-4.14s1.75-4.14,4.1-4.14c1.15,0,2.17.44,2.89,1.18l.19-.99,1.25.03ZM133.48,26.36c0-1.49-1.08-2.59-2.56-2.59s-2.59,1.12-2.59,2.59,1.11,2.59,2.59,2.59c1.49-.03,2.56-1.12,2.56-2.59Z"/>  <path class="cls-1" d="M137.41,19.56h1.62v10.73h-1.62v-10.73Z"/>  <path class="cls-1" d="M58.6,39.3c0-3.07,2.24-5.29,5.25-5.29,2.42,0,4.36,1.5,4.89,3.82h-1.7c-.49-1.36-1.68-2.18-3.2-2.18-2.05,0-3.55,1.55-3.55,3.67s1.5,3.67,3.55,3.67c1.56,0,2.77-.87,3.23-2.33h1.7c-.55,2.4-2.48,3.95-4.94,3.95-2.99-.01-5.23-2.27-5.23-5.31Z"/>  <path class="cls-1" d="M74.05,44.59c-2.4,0-4.22-1.77-4.22-4.14s1.81-4.14,4.22-4.14,4.2,1.77,4.2,4.14c.01,2.39-1.78,4.14-4.2,4.14ZM76.61,40.45c0-1.52-1.08-2.59-2.56-2.59s-2.56,1.08-2.56,2.59,1.08,2.59,2.56,2.59,2.56-1.08,2.56-2.59Z"/>  <path class="cls-1" d="M84.18,36.33c1.84,0,2.99,1.39,2.99,3.32v4.76h-1.62v-4.42c0-1.43-.62-2.2-1.81-2.2s-2.12.99-2.12,2.39v4.23h-1.62v-7.9h1.13l.32,1.11c.57-.81,1.55-1.28,2.73-1.28Z"/>  <path class="cls-1" d="M88.77,41.91h1.58c.03.84.74,1.27,1.7,1.27.87,0,1.55-.37,1.55-1.03,0-.75-.84-.91-1.81-1.08-1.33-.22-2.87-.52-2.87-2.34,0-1.41,1.22-2.39,3.05-2.39s3.02,1,3.05,2.54h-1.55c-.04-.75-.59-1.15-1.55-1.15-.9,0-1.46.37-1.46.96,0,.69.8.84,1.75.99,1.34.22,2.95.49,2.95,2.42,0,1.53-1.28,2.54-3.2,2.54-1.9-.03-3.15-1.08-3.18-2.71Z"/>  <path class="cls-1" d="M100.57,44.59c-2.4,0-4.22-1.77-4.22-4.14s1.81-4.14,4.22-4.14,4.2,1.77,4.2,4.14c.01,2.39-1.78,4.14-4.2,4.14ZM103.13,40.45c0-1.52-1.08-2.59-2.56-2.59s-2.56,1.08-2.56,2.59,1.08,2.59,2.56,2.59,2.56-1.08,2.56-2.59Z"/>  <path class="cls-1" d="M110.99,36.45v1.53h-.85c-1.34,0-2,.77-2,2.2v4.22h-1.62v-7.89h1.09l.28,1.08c.56-.75,1.34-1.12,2.42-1.12h.69Z"/>  <path class="cls-1" d="M116.69,42.92v1.47h-1.21c-1.72,0-2.79-1.06-2.79-2.82v-3.7h-1.41v-.32l2.74-2.93h.28v1.84h2.34v1.4h-2.33v3.57c0,.96.52,1.47,1.47,1.47h.9Z"/>  <path class="cls-1" d="M118.22,33.61h1.68v1.68h-1.68v-1.68ZM118.27,36.5h1.62v7.89h-1.62v-7.89Z"/>  <path class="cls-1" d="M122.07,41.07v-4.57h1.62v4.33c0,1.39.75,2.2,1.98,2.2s1.96-.84,1.96-2.2v-4.33h1.62v4.57c0,2.12-1.4,3.52-3.58,3.52s-3.6-1.4-3.6-3.52Z"/>  <path class="cls-1" d="M140.21,36.33c1.65,0,2.79,1.27,2.79,3.07v5.01h-1.62v-4.63c0-1.27-.56-1.99-1.53-1.99-1.05,0-1.84.96-1.84,2.3v4.33h-1.56v-4.63c0-1.27-.55-1.99-1.53-1.99-1.05,0-1.86.96-1.86,2.3v4.33h-1.62v-7.93h1.15l.28,1.03c.59-.75,1.49-1.19,2.46-1.19,1.06,0,1.92.52,2.36,1.39.55-.88,1.52-1.4,2.54-1.4Z"/></svg>
